              <svg
                xmlns="http://www.w3.org/2000/svg"
                version="1.1"
                xmlns:xlink="http://www.w3.org/1999/xlink"
                xmlns:svgjs="http://svgjs.dev/svgjs"
                viewBox="0 0 800 800"
              >
                <defs>
                  <linearGradient
                    x1="50%"
                    y1="0%"
                    x2="50%"
                    y2="100%"
                    id="nnneon-grad"
                  >
                    <stop
                      stop-color="#78f4ec"
                      stop-opacity="1"
                      offset="0%"
                    ></stop>
                    <stop
                      stop-color="#282cfc"
                      stop-opacity="1"
                      offset="100%"
                    ></stop>
                  </linearGradient>
                  <filter
                    id="nnneon-filter"
                    x="-100%"
                    y="-100%"
                    width="400%"
                    height="400%"
                    filterUnits="objectBoundingBox"
                    primitiveUnits="userSpaceOnUse"
                    color-interpolation-filters="sRGB"
                  >
                    <feGaussianBlur
                      stdDeviation="34 24"
                      x="0%"
                      y="0%"
                      width="100%"
                      height="100%"
                      in="SourceGraphic"
                      edgeMode="none"
                      result="blur"
                    ></feGaussianBlur>
                  </filter>
                  <filter
                    id="nnneon-filter2"
                    x="-100%"
                    y="-100%"
                    width="400%"
                    height="400%"
                    filterUnits="objectBoundingBox"
                    primitiveUnits="userSpaceOnUse"
                    color-interpolation-filters="sRGB"
                  >
                    <feGaussianBlur
                      stdDeviation="27 21"
                      x="0%"
                      y="0%"
                      width="100%"
                      height="100%"
                      in="SourceGraphic"
                      edgeMode="none"
                      result="blur"
                    ></feGaussianBlur>
                  </filter>
                </defs>
                <g stroke-width="16" stroke="url(#nnneon-grad)" fill="none">
                  <path
                    d="M378.4456505222108 89.1276353921254C391.7835008633441 81.4284108577802 408.21656017181215 81.4284108577802 421.5544105129454 89.12979083012493L658.4456684140301 225.89879821472903C671.7835187551634 233.59802274907418 680.0000484093974 247.83037986001523 680.0000484093974 263.23098436670523V536.7689991359134C680.0000484093974 552.1696036426033 671.7835187551634 566.4019607535444 658.4456684140301 574.1033407258891L421.5544105129454 710.8723481104931C408.21656017181215 718.5715726448384 391.7835008633441 718.5715726448384 378.4456505222108 710.8701926724937L141.5543926211261 574.1011852878896C128.21654227999284 566.4019607535444 120.00001262575881 552.1696036426033 120.00001262575881 536.7689991359134V263.23098436670523C120.00001262575881 247.83037986001523 128.21654227999284 233.59802274907418 141.5543926211261 225.8966427767295L378.4456505222108 89.1276353921254Z "
                    filter="url(#nnneon-filter)"
                  ></path>
                  <path
                    d="M410.4456505222108 89.1276353921254C423.7835008633441 81.4284108577802 440.21656017181215 81.4284108577802 453.5544105129454 89.12979083012493L690.4456684140301 225.89879821472903C703.7835187551634 233.59802274907418 712.0000484093974 247.83037986001523 712.0000484093974 263.23098436670523V536.7689991359134C712.0000484093974 552.1696036426033 703.7835187551634 566.4019607535444 690.4456684140301 574.1033407258891L453.5544105129454 710.8723481104931C440.21656017181215 718.5715726448384 423.7835008633441 718.5715726448384 410.4456505222108 710.8701926724937L173.5543926211261 574.1011852878896C160.21654227999284 566.4019607535444 152.0000126257588 552.1696036426033 152.0000126257588 536.7689991359134V263.23098436670523C152.0000126257588 247.83037986001523 160.21654227999284 233.59802274907418 173.5543926211261 225.8966427767295L410.4456505222108 89.1276353921254Z "
                    filter="url(#nnneon-filter2)"
                    opacity="0.14"
                  ></path>
                  <path
                    d="M346.4456505222108 89.1276353921254C359.7835008633441 81.4284108577802 376.21656017181215 81.4284108577802 389.5544105129454 89.12979083012493L626.4456684140301 225.89879821472903C639.7835187551634 233.59802274907418 648.0000484093974 247.83037986001523 648.0000484093974 263.23098436670523V536.7689991359134C648.0000484093974 552.1696036426033 639.7835187551634 566.4019607535444 626.4456684140301 574.1033407258891L389.5544105129454 710.8723481104931C376.21656017181215 718.5715726448384 359.7835008633441 718.5715726448384 346.4456505222108 710.8701926724937L109.55439262112611 574.1011852878896C96.21654227999284 566.4019607535444 88.00001262575881 552.1696036426033 88.00001262575881 536.7689991359134V263.23098436670523C88.00001262575881 247.83037986001523 96.21654227999284 233.59802274907418 109.55439262112611 225.8966427767295L346.4456505222108 89.1276353921254Z "
                    filter="url(#nnneon-filter2)"
                    opacity="0.14"
                  ></path>
                  <path
                    d="M378.4456505222108 89.1276353921254C391.7835008633441 81.4284108577802 408.21656017181215 81.4284108577802 421.5544105129454 89.12979083012493L658.4456684140301 225.89879821472903C671.7835187551634 233.59802274907418 680.0000484093974 247.83037986001523 680.0000484093974 263.23098436670523V536.7689991359134C680.0000484093974 552.1696036426033 671.7835187551634 566.4019607535444 658.4456684140301 574.1033407258891L421.5544105129454 710.8723481104931C408.21656017181215 718.5715726448384 391.7835008633441 718.5715726448384 378.4456505222108 710.8701926724937L141.5543926211261 574.1011852878896C128.21654227999284 566.4019607535444 120.00001262575881 552.1696036426033 120.00001262575881 536.7689991359134V263.23098436670523C120.00001262575881 247.83037986001523 128.21654227999284 233.59802274907418 141.5543926211261 225.8966427767295L378.4456505222108 89.1276353921254Z "
                  ></path>
                </g>
              </svg>